<?xml version="1.0" standalone="no"?><!DOCTYPE svg PUBLIC "-//W3C//DTD SVG 1.1//EN" "http://www.w3.org/Graphics/SVG/1.1/DTD/svg11.dtd"><svg t="1566295117365" class="icon" viewBox="0 0 1024 1024" version="1.1" xmlns="http://www.w3.org/2000/svg" p-id="5944" xmlns:xlink="http://www.w3.org/1999/xlink" width="64" height="64"><defs><style type="text/css"></style></defs><path d="M917.774677 763.018034l-81.387635 0.285502-0.302899-79.32772c0-21.511943-16.969487-38.946011-39.473013-38.946011-22.50455 0-40.751123 17.434068-40.751123 38.946011l-0.12689 79.610152-82.439594 0.284479c-22.51069 0-40.756239 16.22452-40.756239 37.732369 0 21.516036 18.24555 38.947034 40.756239 38.947034l82.317821 0.122797-0.12689 80.598666c0 21.505803 18.24248 38.947034 40.754193 38.947034 22.505573 0 40.751123-17.441231 40.751123-38.947034l-0.306992-80.479963 81.093946 0.115634c22.503527 0 40.756239-17.435091 40.756239-38.946011C958.530916 780.458241 940.28025 763.018034 917.774677 763.018034L917.774677 763.018034zM671.448502 671.240771c0.207731 0.157589 0.418532 0.308015 0.626263 0.467651l0-0.233314c4.597715 1.716084 9.590426 2.669806 14.81952 2.669806 22.51069 0 40.752146-17.443277 40.752146-38.956244l-0.36839-3.605108c0-8.69094-2.980891-16.718777-8.014534-23.201421l0.430812-0.499373c-0.733711-0.540306-1.471514-1.077541-2.208295-1.611707-4.112668-4.594645-9.323343-8.265244-15.246239-10.636245-22.303982-14.813381-46.214555-27.572986-71.453379-37.94931 75.156724-49.213865 124.474966-131.837654 124.474966-225.477334 0-150.84966-127.965463-273.142937-285.813514-273.142937-157.852144 0-285.817608 122.293277-285.817608 273.142937 0 93.674473 49.350988 176.322821 124.553761 225.53157C179.572842 610.680487 85.139076 724.994022 65.22963 862.089423c-1.475608 4.021593-2.285043 8.352225-2.285043 12.857842l0.306992 3.02694-0.010233 0.11768 0.025583 0 0.050142 0.477884c0 21.503756 18.246573 38.946011 40.752146 38.946011 22.505573 0 40.756239-17.436114 40.756239-38.946011l-0.048095-0.477884 0.730641 0c18.990516-148.727323 147.519822-265.119193 306.147632-273.279037 5.886057 0.342808 11.813047 0.540306 17.792225 0.540306 5.987365 0 11.924587-0.197498 17.819854-0.546446 62.277392 3.198855 119.906927 23.091928 168.096463 55.061037C659.624199 664.834874 665.142889 668.769486 671.448502 671.240771L671.448502 671.240771zM469.37111 527.385409c-112.7489 0-204.151633-87.35351-204.151633-195.10356 0-107.749026 91.40171-195.098443 204.151633-195.098443 112.752993 0 204.149587 87.35044 204.149587 195.098443C673.520697 440.030875 582.123081 527.385409 469.37111 527.385409L469.37111 527.385409z" p-id="5945"></path></svg>